<svg xmlns="http://www.w3.org/2000/svg" xmlns:xlink="http://www.w3.org/1999/xlink" width="500" zoomAndPan="magnify" viewBox="0 0 375 449.999984" height="600" preserveAspectRatio="xMidYMid meet" version="1.0"><defs><clipPath id="820fd166ce"><path d="M 47.257812 183 L 334.8125 183 L 334.8125 450 L 47.257812 450 Z M 47.257812 183 " clip-rule="nonzero"/></clipPath></defs><path fill="#f2e8d5" d="M 77.214844 380.421875 L 63.925781 451.070312 C 94.804688 456.121094 161.429688 459.941406 161.429688 459.941406 L 169.457031 422.617188 L 177.261719 459.5 C 177.261719 459.5 229.984375 457.351562 256.738281 453.308594 L 246.78125 384.023438 L 77.214844 380.421875 " fill-opacity="1" fill-rule="evenodd"/><path fill="#fcbfa3" d="M 310.949219 198.117188 C 311.433594 193.246094 310.378906 164.265625 300.292969 140.949219 C 297.089844 133.484375 289.195312 133.046875 284.679688 136.734375 C 277.132812 142.882812 274.414062 174.363281 274.414062 174.363281 C 274.414062 174.363281 268.800781 168.347656 265.160156 165.890625 C 262.308594 163.914062 257.484375 163.300781 256.652344 167.03125 C 254.632812 175.902344 277.222656 210.761719 277.222656 210.761719 L 310.949219 198.117188 " fill-opacity="1" fill-rule="evenodd"/><path fill="#f7907f" d="M 284.632812 140.773438 C 285.378906 144.417969 286.167969 148.0625 286.652344 151.796875 C 287.003906 154.253906 287.222656 156.757812 287.265625 159.257812 C 287.351562 163.386719 286.957031 167.515625 285.992188 171.773438 C 285.90625 172.167969 285.511719 172.433594 285.117188 172.34375 C 284.722656 172.257812 284.457031 171.859375 284.546875 171.464844 C 285.335938 167.292969 285.46875 163.300781 285.335938 159.347656 C 285.25 156.886719 285.027344 154.429688 284.722656 152.015625 C 284.328125 148.371094 283.757812 144.726562 283.144531 141.082031 C 283.054688 140.644531 283.316406 140.246094 283.757812 140.160156 C 284.152344 140.070312 284.546875 140.378906 284.632812 140.773438 " fill-opacity="1" fill-rule="evenodd"/><path fill="#f7907f" d="M 290.992188 139.238281 C 291.738281 142.882812 292.527344 146.570312 293.011719 150.257812 C 293.363281 152.71875 293.582031 155.21875 293.625 157.765625 C 293.714844 161.851562 293.320312 165.976562 292.355469 170.238281 C 292.265625 170.632812 291.871094 170.894531 291.476562 170.808594 C 291.082031 170.71875 290.820312 170.324219 290.90625 169.929688 C 291.695312 165.800781 291.828125 161.761719 291.695312 157.8125 C 291.609375 155.351562 291.390625 152.9375 291.125 150.476562 C 290.6875 146.832031 290.117188 143.1875 289.503906 139.546875 C 289.414062 139.105469 289.679688 138.710938 290.117188 138.621094 C 290.511719 138.578125 290.949219 138.84375 290.992188 139.238281 " fill-opacity="1" fill-rule="evenodd"/><path fill="#f7907f" d="M 297.703125 140.421875 C 298.449219 144.113281 299.238281 147.753906 299.722656 151.445312 C 300.074219 153.945312 300.292969 156.40625 300.335938 158.953125 C 300.378906 163.035156 300.03125 167.164062 299.0625 171.421875 C 298.976562 171.816406 298.582031 172.082031 298.1875 171.992188 C 297.75 171.90625 297.484375 171.511719 297.574219 171.113281 C 298.363281 166.988281 298.539062 162.949219 298.363281 158.996094 C 298.273438 156.539062 298.097656 154.121094 297.792969 151.707031 C 297.355469 148.019531 296.828125 144.375 296.167969 140.730469 C 296.125 140.292969 296.390625 139.894531 296.785156 139.851562 C 297.222656 139.765625 297.617188 140.027344 297.703125 140.421875 " fill-opacity="1" fill-rule="evenodd"/><g clip-path="url(#820fd166ce)"><path fill="#000000" d="M 133.3125 183.761719 C 133.3125 183.761719 91.25 195.394531 76.863281 211.949219 C 48.3125 244.75 47.257812 452.652344 47.257812 452.652344 L 86.382812 456.472656 L 90.460938 391.664062 C 143.183594 397.285156 195.773438 395.703125 249.984375 388.0625 L 244.152344 328.21875 C 244.152344 328.21875 302.441406 379.546875 324.765625 345.824219 C 351.960938 304.726562 315.730469 195.703125 315.730469 195.703125 L 264.941406 206.503906 L 273.976562 255.023438 C 273.976562 255.023438 260.292969 221.695312 252.441406 212.476562 C 240.464844 198.382812 191.210938 184.636719 191.210938 184.636719 L 133.3125 183.761719 " fill-opacity="1" fill-rule="evenodd"/></g><path fill="#000000" d="M 236.824219 255.417969 C 236.824219 255.417969 238.316406 276.933594 240.027344 298.449219 C 241.78125 319.917969 243.710938 341.390625 243.710938 341.390625 C 243.800781 342.441406 244.675781 343.191406 245.6875 343.144531 C 246.738281 343.058594 247.527344 342.136719 247.441406 341.125 C 247.441406 341.125 245.859375 319.609375 244.152344 298.097656 C 242.394531 276.625 240.464844 255.15625 240.464844 255.15625 C 240.378906 254.144531 239.5 253.398438 238.492188 253.484375 C 237.484375 253.574219 236.738281 254.453125 236.824219 255.417969 " fill-opacity="1" fill-rule="evenodd"/><path fill="#000000" d="M 84.363281 255.726562 C 83.445312 272.496094 83.269531 294.890625 83.179688 316.316406 C 83.136719 330.894531 83.136719 345.035156 82.875 356.625 C 82.652344 368.171875 81.734375 379.414062 80.679688 383.585938 C 80.109375 385.824219 80.722656 387.667969 82.214844 389.160156 C 83.621094 390.523438 85.855469 391.621094 88.664062 392.410156 C 98.179688 395 113.925781 394.121094 113.925781 394.121094 C 114.761719 394.078125 115.417969 393.332031 115.375 392.5 C 115.332031 391.621094 114.628906 390.960938 113.75 391.003906 C 113.75 391.003906 101.910156 391.574219 92.875 389.90625 C 89.890625 389.335938 87.257812 388.589844 85.503906 387.40625 C 84.410156 386.660156 83.707031 385.734375 84.058594 384.464844 C 85.15625 380.117188 86.25 368.613281 86.558594 356.714844 C 86.863281 345.121094 86.863281 330.9375 86.863281 316.316406 C 86.863281 294.933594 86.734375 272.585938 87.523438 255.855469 C 87.609375 254.980469 86.910156 254.230469 86.03125 254.1875 C 85.15625 254.144531 84.410156 254.804688 84.363281 255.726562 " fill-opacity="1" fill-rule="evenodd"/><path fill="#000000" d="M 300.46875 197.109375 L 264.546875 204.703125 C 263.582031 204.921875 262.964844 205.890625 263.140625 206.855469 C 263.140625 206.855469 266.257812 222.265625 269.941406 239.699219 C 274.722656 262.574219 280.378906 288.964844 280.378906 288.964844 C 280.554688 289.796875 281.386719 290.324219 282.265625 290.148438 C 283.097656 289.972656 283.625 289.140625 283.449219 288.304688 C 283.449219 288.304688 278.230469 261.828125 273.539062 238.953125 C 270.6875 224.988281 268.011719 212.34375 267.089844 207.867188 L 301.125 200.226562 C 302.003906 200.007812 302.53125 199.171875 302.355469 198.292969 C 302.179688 197.460938 301.34375 196.886719 300.46875 197.109375 " fill-opacity="1" fill-rule="evenodd"/><path fill="#fcbfa3" d="M 179.980469 139.28125 L 141.207031 139.28125 C 141.207031 139.28125 143.226562 165.800781 139.367188 174.804688 C 135.859375 182.96875 131.996094 182.75 131.996094 182.75 C 142.964844 204.132812 177.613281 207.382812 191.078125 182.75 C 191.078125 182.75 186.738281 182.265625 184.148438 174.757812 C 180.902344 165.40625 179.980469 139.28125 179.980469 139.28125 " fill-opacity="1" fill-rule="evenodd"/><path fill="#f7907f" d="M 140.289062 172.125 C 164.675781 171.640625 177.875 164.222656 182.789062 151.3125 L 142.128906 148.984375 L 140.289062 172.125 " fill-opacity="1" fill-rule="evenodd"/><path fill="#fcbfa3" d="M 155.332031 52.828125 C 139.324219 53.265625 124.320312 57.570312 118.09375 69.425781 C 111.910156 81.191406 114.453125 100.554688 114.9375 114.5625 C 115.902344 142.96875 128.445312 164.222656 160.550781 163.476562 C 189.148438 162.816406 202.261719 138.621094 202.042969 114.738281 C 201.914062 100.160156 203.929688 83.253906 198.050781 71.925781 C 191.210938 58.753906 175.15625 52.257812 155.332031 52.828125 " fill-opacity="1" fill-rule="evenodd"/><path fill="#fcbfa3" d="M 204.367188 101.566406 C 210.246094 101.566406 214.984375 106.480469 214.984375 112.496094 C 214.984375 118.511719 210.246094 123.429688 204.367188 123.429688 C 198.535156 123.429688 193.796875 118.511719 193.796875 112.496094 C 193.796875 106.480469 198.535156 101.566406 204.367188 101.566406 " fill-opacity="1" fill-rule="evenodd"/><path fill="#fcbfa3" d="M 113.882812 101.566406 C 119.761719 101.566406 124.496094 106.480469 124.496094 112.496094 C 124.496094 118.511719 119.761719 123.429688 113.882812 123.429688 C 108.050781 123.429688 103.3125 118.511719 103.3125 112.496094 C 103.3125 106.480469 108.050781 101.566406 113.882812 101.566406 " fill-opacity="1" fill-rule="evenodd"/><path fill="#f2e8d5" d="M 133.359375 181.34375 C 133.359375 181.34375 145.683594 197.0625 163.402344 196.582031 C 182 196.097656 188.753906 181.34375 188.753906 181.34375 L 195.683594 185.035156 C 195.683594 185.035156 183.667969 206.679688 165.246094 206.328125 C 138.007812 205.714844 127.390625 185.035156 127.390625 185.035156 L 133.359375 181.34375 " fill-opacity="1" fill-rule="evenodd"/><path fill="#000000" d="M 177.304688 96.472656 C 179.9375 96.472656 182.042969 98.710938 182.042969 101.433594 C 182.042969 104.15625 179.9375 106.351562 177.304688 106.351562 C 174.71875 106.351562 172.613281 104.15625 172.613281 101.433594 C 172.613281 98.710938 174.71875 96.472656 177.304688 96.472656 " fill-opacity="1" fill-rule="evenodd"/><path fill="#f7907f" d="M 183.621094 112.671875 C 188.929688 112.671875 193.273438 115.613281 193.273438 119.214844 C 193.273438 122.773438 188.929688 125.714844 183.621094 125.714844 C 178.269531 125.714844 173.929688 122.773438 173.929688 119.214844 C 173.929688 115.613281 178.269531 112.671875 183.621094 112.671875 " fill-opacity="1" fill-rule="evenodd"/><path fill="#f7907f" d="M 130.550781 112.671875 C 135.902344 112.671875 140.242188 115.613281 140.242188 119.214844 C 140.242188 122.773438 135.902344 125.714844 130.550781 125.714844 C 125.242188 125.714844 120.902344 122.773438 120.902344 119.214844 C 120.902344 115.613281 125.242188 112.671875 130.550781 112.671875 " fill-opacity="1" fill-rule="evenodd"/><path fill="#000000" d="M 138.664062 97.394531 C 141.253906 97.394531 143.402344 99.589844 143.402344 102.3125 C 143.402344 105.035156 141.253906 107.273438 138.664062 107.273438 C 136.03125 107.273438 133.929688 105.035156 133.929688 102.3125 C 133.929688 99.589844 136.03125 97.394531 138.664062 97.394531 " fill-opacity="1" fill-rule="evenodd"/><path fill="#000000" d="M 172.527344 88.964844 C 173.621094 88.4375 174.675781 88.171875 175.769531 87.996094 C 176.824219 87.820312 177.964844 87.777344 179.015625 87.820312 C 180.375 87.820312 181.734375 87.910156 183.097656 88.214844 C 184.015625 88.4375 184.9375 88.65625 185.859375 88.964844 C 186.648438 89.359375 187.65625 89.007812 188.007812 88.171875 C 188.402344 87.339844 188.050781 86.371094 187.21875 85.976562 C 185.464844 85.011719 183.667969 84.222656 181.734375 83.78125 C 180.902344 83.5625 180.027344 83.429688 179.148438 83.429688 C 178.269531 83.386719 177.394531 83.476562 176.515625 83.648438 C 174.542969 84 172.65625 84.792969 170.859375 86.019531 C 170.023438 86.460938 169.761719 87.515625 170.246094 88.304688 C 170.683594 89.140625 171.734375 89.402344 172.527344 88.964844 " fill-opacity="1" fill-rule="evenodd"/><path fill="#000000" d="M 145.113281 86.019531 C 143.359375 84.792969 141.429688 84 139.453125 83.648438 C 138.621094 83.476562 137.699219 83.386719 136.824219 83.429688 C 135.945312 83.429688 135.066406 83.5625 134.234375 83.78125 C 132.304688 84.222656 130.507812 85.011719 128.753906 85.976562 C 127.917969 86.371094 127.566406 87.339844 127.960938 88.171875 C 128.355469 89.007812 129.324219 89.359375 130.15625 88.964844 C 131.03125 88.65625 131.953125 88.4375 132.875 88.214844 C 134.234375 87.910156 135.59375 87.820312 136.953125 87.820312 C 138.050781 87.777344 139.148438 87.820312 140.242188 87.996094 C 141.296875 88.171875 142.394531 88.4375 143.445312 88.964844 C 144.234375 89.402344 145.289062 89.140625 145.726562 88.304688 C 146.207031 87.515625 145.945312 86.460938 145.113281 86.019531 " fill-opacity="1" fill-rule="evenodd"/><path fill="#f7907f" d="M 147.042969 129.796875 C 147.042969 129.796875 146.429688 143.363281 158.710938 142.792969 C 171.78125 142.179688 170.507812 130.0625 170.507812 130.0625 L 147.042969 129.796875 " fill-opacity="1" fill-rule="evenodd"/><path fill="#f7907f" d="M 155.988281 97.042969 C 156.734375 106.261719 155.246094 113.375 154.71875 118.160156 C 154.410156 120.707031 154.410156 122.683594 155.023438 124 C 155.859375 125.847656 157.832031 126.8125 162.042969 126.285156 C 162.570312 126.195312 162.964844 125.714844 162.875 125.144531 C 162.832031 124.617188 162.304688 124.222656 161.78125 124.308594 C 160.199219 124.527344 159.058594 124.484375 158.183594 124.265625 C 157.523438 124.089844 157.085938 123.738281 156.824219 123.167969 C 156.339844 122.113281 156.429688 120.488281 156.691406 118.425781 C 157.21875 113.507812 158.753906 106.261719 157.964844 96.867188 C 157.917969 96.339844 157.4375 95.902344 156.867188 95.945312 C 156.339844 95.988281 155.945312 96.472656 155.988281 97.042969 " fill-opacity="1" fill-rule="evenodd"/><path fill="#000000" d="M 204.28125 51.246094 C 226.167969 59.941406 212.964844 105.910156 201.515625 106.21875 C 194.9375 97.128906 197.261719 75.527344 197.261719 75.527344 C 190.375 85.757812 146.121094 87.117188 152.570312 71.75 C 145.023438 76.886719 134.496094 83.429688 118.050781 82.15625 C 118.050781 82.15625 121.03125 96.648438 114.144531 105.164062 C 102.390625 99.984375 105.945312 81.675781 105.945312 81.675781 C 85.945312 81.191406 90.417969 52.738281 105.285156 55.988281 C 105.285156 55.988281 87.699219 39.039062 104.058594 32.894531 C 108.972656 31.046875 124.542969 41.804688 130.550781 37.546875 C 155.246094 20.203125 193.050781 23.101562 204.28125 51.246094 " fill-opacity="1" fill-rule="evenodd"/></svg>