<svg xmlns="http://www.w3.org/2000/svg" xmlns:xlink="http://www.w3.org/1999/xlink" width="500" zoomAndPan="magnify" viewBox="0 0 375 374.999991" height="500" preserveAspectRatio="xMidYMid meet" version="1.0"><defs><g/><clipPath id="d0c2ee5bcc"><path d="M 122.332031 94.277344 L 252.832031 94.277344 L 252.832031 212.027344 L 122.332031 212.027344 Z M 122.332031 94.277344 " clip-rule="nonzero"/></clipPath></defs><g clip-path="url(#d0c2ee5bcc)"><path fill="#ff7a57" d="M 233.214844 133.304688 L 227.710938 133.304688 C 206.671875 133.304688 194.863281 123.828125 184.441406 115.46875 C 176.089844 108.765625 164.597656 102.976562 153.746094 102.976562 L 142.265625 102.976562 C 136.425781 102.976562 131.398438 107.4375 131.109375 113.246094 C 131.074219 113.976562 131.109375 114.707031 131.222656 115.429688 C 131.335938 116.15625 131.519531 116.859375 131.773438 117.546875 C 132.03125 118.234375 132.355469 118.886719 132.742188 119.511719 C 133.132812 120.132812 133.582031 120.707031 134.085938 121.238281 C 134.59375 121.769531 135.148438 122.246094 135.753906 122.664062 C 136.355469 123.082031 136.996094 123.4375 137.671875 123.726562 C 138.347656 124.015625 139.046875 124.234375 139.765625 124.382812 C 140.484375 124.53125 141.214844 124.605469 141.949219 124.605469 L 160.582031 124.605469 C 190.078125 124.605469 207.6875 138.050781 207.6875 160.574219 L 207.65625 160.574219 C 207.675781 160.574219 207.6875 160.585938 207.6875 160.605469 L 207.6875 191.871094 C 207.6875 192.542969 207.652344 193.214844 207.582031 193.882812 C 207.515625 194.550781 207.414062 195.214844 207.28125 195.871094 C 207.144531 196.53125 206.976562 197.183594 206.777344 197.824219 C 206.578125 198.464844 206.347656 199.097656 206.085938 199.714844 C 205.820312 200.335938 205.527344 200.9375 205.203125 201.527344 C 204.882812 202.117188 204.527344 202.691406 204.148438 203.246094 C 203.765625 203.800781 203.359375 204.332031 202.925781 204.847656 C 202.492188 205.363281 202.03125 205.851562 201.546875 206.320312 C 201.0625 206.789062 200.558594 207.234375 200.03125 207.652344 C 199.5 208.070312 198.953125 208.460938 198.386719 208.824219 C 197.820312 209.1875 197.234375 209.519531 196.632812 209.828125 C 196.03125 210.132812 195.417969 210.40625 194.789062 210.652344 C 194.160156 210.894531 193.523438 211.105469 192.871094 211.289062 C 192.222656 211.46875 191.566406 211.617188 190.902344 211.730469 C 190.238281 211.84375 189.566406 211.925781 188.894531 211.976562 C 188.222656 212.023438 187.546875 212.039062 186.875 212.019531 C 175.863281 211.710938 167.226562 202.398438 167.226562 191.410156 L 167.226562 142.566406 C 167.226562 142.28125 167.253906 142 167.308594 141.71875 C 167.367188 141.4375 167.449219 141.167969 167.558594 140.902344 C 167.667969 140.636719 167.804688 140.386719 167.960938 140.148438 C 168.121094 139.914062 168.300781 139.691406 168.503906 139.492188 C 168.707031 139.289062 168.929688 139.109375 169.167969 138.949219 C 169.40625 138.792969 169.65625 138.65625 169.921875 138.546875 C 170.1875 138.4375 170.457031 138.355469 170.738281 138.300781 C 171.019531 138.246094 171.304688 138.21875 171.589844 138.21875 C 171.878906 138.21875 172.160156 138.246094 172.441406 138.300781 C 172.722656 138.355469 172.996094 138.4375 173.261719 138.546875 C 173.527344 138.65625 173.777344 138.792969 174.015625 138.949219 C 174.253906 139.109375 174.476562 139.289062 174.679688 139.492188 C 174.878906 139.691406 175.0625 139.914062 175.222656 140.148438 C 175.378906 140.386719 175.515625 140.636719 175.625 140.902344 C 175.734375 141.167969 175.816406 141.4375 175.871094 141.71875 C 175.929688 142 175.957031 142.28125 175.957031 142.566406 L 175.957031 191.515625 C 175.957031 198.332031 181.5625 203.835938 188.378906 203.292969 C 189.09375 203.234375 189.792969 203.113281 190.484375 202.921875 C 191.175781 202.734375 191.84375 202.484375 192.488281 202.171875 C 193.128906 201.859375 193.738281 201.488281 194.3125 201.0625 C 194.890625 200.636719 195.417969 200.164062 195.90625 199.640625 C 196.390625 199.113281 196.824219 198.550781 197.203125 197.945312 C 197.582031 197.339844 197.902344 196.707031 198.164062 196.039062 C 198.425781 195.375 198.621094 194.695312 198.753906 193.992188 C 198.886719 193.292969 198.957031 192.585938 198.957031 191.871094 L 198.957031 160.605469 C 198.957031 160.585938 198.96875 160.574219 198.988281 160.574219 L 198.957031 160.574219 C 198.957031 136.847656 174.914062 133.304688 160.582031 133.304688 L 142.363281 133.304688 C 131.710938 133.304688 122.691406 124.996094 122.367188 114.382812 C 122.347656 113.730469 122.359375 113.082031 122.40625 112.433594 C 122.453125 111.78125 122.53125 111.136719 122.640625 110.492188 C 122.753906 109.851562 122.894531 109.21875 123.070312 108.589844 C 123.246094 107.960938 123.453125 107.34375 123.6875 106.738281 C 123.925781 106.128906 124.191406 105.535156 124.488281 104.957031 C 124.785156 104.375 125.109375 103.808594 125.460938 103.261719 C 125.816406 102.714844 126.195312 102.183594 126.601562 101.671875 C 127.007812 101.164062 127.4375 100.675781 127.894531 100.207031 C 128.347656 99.738281 128.828125 99.296875 129.328125 98.875 C 129.828125 98.457031 130.347656 98.0625 130.886719 97.695312 C 131.425781 97.324219 131.980469 96.984375 132.554688 96.671875 C 133.128906 96.359375 133.714844 96.078125 134.320312 95.824219 C 134.921875 95.570312 135.535156 95.347656 136.160156 95.152344 C 136.78125 94.960938 137.414062 94.800781 138.054688 94.667969 C 138.695312 94.539062 139.34375 94.441406 139.992188 94.375 C 140.644531 94.3125 141.296875 94.277344 141.949219 94.277344 L 153.746094 94.277344 C 167.667969 94.277344 181.085938 101.605469 189.921875 108.691406 C 199.683594 116.515625 209.75 124.605469 227.714844 124.605469 L 232.90625 124.605469 C 238.742188 124.605469 243.773438 120.144531 244.058594 114.335938 C 244.09375 113.605469 244.058594 112.875 243.945312 112.152344 C 243.832031 111.425781 243.648438 110.722656 243.394531 110.035156 C 243.136719 109.347656 242.8125 108.695312 242.425781 108.070312 C 242.035156 107.449219 241.585938 106.875 241.082031 106.34375 C 240.574219 105.8125 240.019531 105.335938 239.414062 104.917969 C 238.8125 104.5 238.171875 104.144531 237.496094 103.855469 C 236.820312 103.566406 236.121094 103.347656 235.402344 103.199219 C 234.683594 103.054688 233.953125 102.976562 233.21875 102.976562 L 190.480469 102.976562 C 190.191406 102.976562 189.910156 102.949219 189.628906 102.894531 C 189.347656 102.839844 189.074219 102.753906 188.808594 102.644531 C 188.542969 102.539062 188.292969 102.402344 188.054688 102.246094 C 187.816406 102.085938 187.59375 101.90625 187.390625 101.703125 C 187.191406 101.5 187.007812 101.28125 186.847656 101.042969 C 186.691406 100.808594 186.554688 100.554688 186.445312 100.292969 C 186.335938 100.027344 186.253906 99.757812 186.199219 99.476562 C 186.140625 99.195312 186.113281 98.914062 186.113281 98.628906 C 186.113281 98.34375 186.140625 98.058594 186.199219 97.777344 C 186.253906 97.5 186.335938 97.226562 186.445312 96.964844 C 186.554688 96.699219 186.691406 96.449219 186.847656 96.210938 C 187.007812 95.972656 187.191406 95.753906 187.390625 95.550781 C 187.59375 95.351562 187.816406 95.167969 188.054688 95.011719 C 188.292969 94.851562 188.542969 94.71875 188.808594 94.609375 C 189.074219 94.5 189.347656 94.417969 189.628906 94.363281 C 189.910156 94.304688 190.191406 94.277344 190.480469 94.277344 L 232.800781 94.277344 C 243.457031 94.277344 252.472656 102.589844 252.792969 113.199219 C 252.8125 113.851562 252.796875 114.503906 252.75 115.152344 C 252.707031 115.800781 252.625 116.445312 252.515625 117.089844 C 252.40625 117.730469 252.261719 118.367188 252.085938 118.992188 C 251.914062 119.621094 251.707031 120.238281 251.46875 120.84375 C 251.234375 121.453125 250.964844 122.046875 250.671875 122.625 C 250.375 123.207031 250.050781 123.769531 249.695312 124.320312 C 249.34375 124.867188 248.964844 125.398438 248.558594 125.90625 C 248.152344 126.417969 247.722656 126.90625 247.265625 127.375 C 246.8125 127.839844 246.332031 128.285156 245.835938 128.703125 C 245.335938 129.125 244.816406 129.519531 244.277344 129.886719 C 243.738281 130.253906 243.179688 130.59375 242.605469 130.90625 C 242.035156 131.21875 241.445312 131.503906 240.84375 131.757812 C 240.242188 132.011719 239.628906 132.234375 239.003906 132.429688 C 238.382812 132.621094 237.75 132.78125 237.109375 132.914062 C 236.46875 133.042969 235.824219 133.140625 235.171875 133.207031 C 234.523438 133.273438 233.871094 133.304688 233.214844 133.304688 Z M 233.214844 133.304688 " fill-opacity="1" fill-rule="nonzero"/></g><g fill="#ff7a57" fill-opacity="1"><g transform="translate(81.519529, 257.571926)"><g><path d="M 21.171875 -19.5 L 13.796875 -19.5 L 13.796875 0 L 7.5625 0 L 7.5625 -19.5 L 0.25 -19.5 L 0.25 -24.53125 L 21.171875 -24.53125 Z M 21.171875 -19.5 "/></g></g></g><g fill="#ff7a57" fill-opacity="1"><g transform="translate(111.649701, 257.571926)"><g><path d="M 24.5 -24.5 L 24.5 -10.296875 C 24.5 -7.046875 23.492188 -4.46875 21.484375 -2.5625 C 19.484375 -0.664062 16.765625 0.28125 13.328125 0.28125 C 9.878906 0.28125 7.132812 -0.664062 5.09375 -2.5625 C 3.050781 -4.46875 2.03125 -7.046875 2.03125 -10.296875 L 2.03125 -24.5 L 8.265625 -24.5 L 8.265625 -10.296875 C 8.265625 -8.660156 8.734375 -7.359375 9.671875 -6.390625 C 10.617188 -5.421875 11.851562 -4.9375 13.375 -4.9375 C 14.863281 -4.9375 16.054688 -5.414062 16.953125 -6.375 C 17.859375 -7.332031 18.3125 -8.640625 18.3125 -10.296875 L 18.3125 -24.5 Z M 24.5 -24.5 "/></g></g></g><g fill="#ff7a57" fill-opacity="1"><g transform="translate(146.923705, 257.571926)"><g><path d="M 25.0625 0 L 19.5625 0 L 8.296875 -15.078125 L 8.296875 0 L 2.453125 0 L 2.453125 -24.5 L 7.9375 -24.5 L 19.25 -9.375 L 19.25 -24.5 L 25.0625 -24.5 Z M 25.0625 0 "/></g></g></g><g fill="#ff7a57" fill-opacity="1"><g transform="translate(183.177493, 257.571926)"><g/></g></g><g fill="#ff7a57" fill-opacity="1"><g transform="translate(200.04566, 257.571926)"><g><path d="M 2.453125 -24.5 L 12.984375 -24.5 C 16.835938 -24.5 19.96875 -23.363281 22.375 -21.09375 C 24.789062 -18.832031 26 -15.882812 26 -12.25 C 26 -8.632812 24.773438 -5.6875 22.328125 -3.40625 C 19.878906 -1.132812 16.679688 0 12.734375 0 L 2.453125 0 Z M 8.6875 -19.53125 L 8.6875 -4.96875 L 13.125 -4.96875 C 15.039062 -4.96875 16.609375 -5.640625 17.828125 -6.984375 C 19.054688 -8.328125 19.671875 -10.070312 19.671875 -12.21875 C 19.671875 -14.363281 19.023438 -16.117188 17.734375 -17.484375 C 16.453125 -18.847656 14.820312 -19.53125 12.84375 -19.53125 Z M 8.6875 -19.53125 "/></g></g></g><g fill="#ff7a57" fill-opacity="1"><g transform="translate(235.634598, 257.571926)"><g><path d="M 21.625 -19.59375 L 8.6875 -19.59375 L 8.6875 -14.734375 L 20.375 -14.734375 L 20.375 -9.828125 L 8.6875 -9.828125 L 8.6875 -4.90625 L 22.015625 -4.90625 L 22.015625 0 L 2.453125 0 L 2.453125 -24.5 L 21.625 -24.5 Z M 21.625 -19.59375 "/></g></g></g><g fill="#ff7a57" fill-opacity="1"><g transform="translate(267.969271, 257.571926)"><g><path d="M 15.921875 0 L 9.484375 0 L -0.03125 -24.5 L 6.609375 -24.5 L 12.875 -6.46875 L 19.140625 -24.5 L 25.546875 -24.5 Z M 15.921875 0 "/></g></g></g></svg>